<svg width="24" height="24" viewBox="0 0 24 24" fill="none" xmlns="http://www.w3.org/2000/svg">
<path d="M11.9999 9.74997C10.7573 9.74997 9.74994 10.7573 9.74994 12C9.74994 13.2426 10.7573 14.25 11.9999 14.25C13.2426 14.25 14.2499 13.2426 14.2499 12C14.2499 10.7573 13.2426 9.74997 11.9999 9.74997Z" fill="#ED4E51"/>
<path fill-rule="evenodd" clip-rule="evenodd" d="M11.9999 5.49997C9.38217 5.49997 7.02795 6.55136 5.33156 7.85333C4.48225 8.50516 3.78537 9.2291 3.29643 9.93365C2.8168 10.6248 2.49994 11.3515 2.49994 12C2.49994 12.6484 2.8168 13.3752 3.29643 14.0663C3.78537 14.7708 4.48225 15.4948 5.33156 16.1466C7.02795 17.4486 9.38217 18.5 11.9999 18.5C14.6177 18.5 16.9719 17.4486 18.6683 16.1466C19.5176 15.4948 20.2145 14.7708 20.7034 14.0663C21.1831 13.3752 21.4999 12.6484 21.4999 12C21.4999 11.3515 21.1831 10.6248 20.7034 9.93365C20.2145 9.2291 19.5176 8.50516 18.6683 7.85333C16.9719 6.55136 14.6177 5.49997 11.9999 5.49997ZM8.24994 12C8.24994 9.9289 9.92887 8.24997 11.9999 8.24997C14.071 8.24997 15.7499 9.9289 15.7499 12C15.7499 14.071 14.071 15.75 11.9999 15.75C9.92887 15.75 8.24994 14.071 8.24994 12Z" fill="#ED4E51"/>
</svg>
