<svg width="24" height="24" viewBox="0 0 24 24" fill="none" xmlns="http://www.w3.org/2000/svg">
<path d="M12.0625 2.30848C11.7729 2.18361 11.4876 2.27096 11.3041 2.45474C11.1259 2.63326 11.0367 2.90573 11.0992 3.18044C11.1979 3.61405 11.25 4.06517 11.25 4.52855C11.25 5.5865 10.9789 6.32748 10.5123 6.94174C10.038 7.56616 9.35149 8.07452 8.48466 8.6481C8.47103 8.65712 8.45834 8.66744 8.44678 8.6789L8.34179 8.78294C6.48195 9.96451 5.25 12.0218 5.25 14.3623C5.25 18.0282 8.27208 21 12 21C15.7279 21 18.75 18.0282 18.75 14.3623C18.75 13.2859 18.4893 12.2687 18.0264 11.3691C17.9887 11.2959 17.9164 11.246 17.8336 11.2361C17.7508 11.2261 17.6684 11.2574 17.614 11.3196C17.5435 11.4 17.4744 11.4793 17.4064 11.5575C16.5281 12.5666 15.8193 13.381 14.3662 13.7447C14.3044 13.7602 14.266 13.7487 14.2387 13.732C14.2067 13.7123 14.1716 13.6729 14.1476 13.6101C14.0975 13.4792 14.119 13.3123 14.2216 13.2028C14.9988 12.3743 15.5509 11.2495 15.7482 9.64942C16.1177 6.65221 14.7325 3.45961 12.0625 2.30848Z" fill="url(#paint0_linear_935_1271)"/>
<defs>
<linearGradient id="paint0_linear_935_1271" x1="12" y1="2.25" x2="12" y2="21" gradientUnits="userSpaceOnUse">
<stop stop-color="#FF9534"/>
<stop offset="1" stop-color="#ED4E51"/>
</linearGradient>
</defs>
</svg>
