<svg width="24" height="24" viewBox="0 0 24 24" fill="none" xmlns="http://www.w3.org/2000/svg">
<path d="M20.4461 16.0612C20.5423 16.2511 20.5077 16.481 20.36 16.6341C20.2122 16.7873 19.9837 16.8302 19.7905 16.7411L17.2912 15.5875C15.1906 14.618 12.8982 14.1745 10.6098 14.2788C10.5827 15.0137 10.5423 15.7482 10.4888 16.482L10.4204 17.4209C10.3789 17.9906 9.7437 18.309 9.26241 18.0015C7.17342 16.6666 5.35736 14.9467 3.91104 12.9333L3.45085 12.2927C3.32563 12.1184 3.32563 11.8836 3.45085 11.7092L3.91103 11.0686C5.35736 9.05523 7.17342 7.33528 9.26241 6.00045C9.7437 5.69292 10.3789 6.01136 10.4204 6.581L10.4888 7.51996C10.5348 8.14982 10.571 8.78021 10.5975 9.4109H11.2406C14.8216 9.41089 18.0983 11.4245 19.716 14.6193L20.4461 16.0612Z" fill="#8E8E8E"/>
</svg>
