<svg width="23" height="23" viewBox="0 0 23 23" fill="none" xmlns="http://www.w3.org/2000/svg">
<path fill-rule="evenodd" clip-rule="evenodd" d="M14.4924 15.8945C10.9891 18.7004 5.86096 18.4796 2.61339 15.232C-0.871131 11.7475 -0.871131 6.09792 2.61339 2.61339C6.09792 -0.871132 11.7474 -0.871131 15.232 2.61339C18.4795 5.86096 18.7004 10.9891 15.8945 14.4924L22.7096 21.3076C23.0968 21.6947 23.0968 22.3225 22.7096 22.7096C22.3225 23.0968 21.6947 23.0968 21.3076 22.7096L14.4924 15.8945ZM4.01546 13.8299C1.30527 11.1197 1.30527 6.72565 4.01546 4.01546C6.72564 1.30527 11.1197 1.30527 13.8299 4.01546C16.5381 6.72366 16.5401 11.1133 13.8359 13.8239C13.8339 13.8259 13.8319 13.8279 13.8299 13.8299C13.8279 13.8319 13.8259 13.8339 13.8239 13.8359C11.1133 16.5401 6.72366 16.5381 4.01546 13.8299Z" fill="#4A4A4A"/>
</svg>
