<svg width="24" height="24" viewBox="0 0 24 24" fill="none" xmlns="http://www.w3.org/2000/svg">
<path d="M12.8723 2.01011C12.4836 1.32996 11.5164 1.32996 11.1277 2.01011L8.39057 6.80011C8.19858 7.1361 7.86673 7.36538 7.48847 7.4234L2.35889 8.21013C1.49735 8.34227 1.19514 9.44686 1.8661 10.0113L5.68742 13.2262C6.04115 13.5238 6.20747 13.9932 6.12155 14.4514L5.12195 19.7819C4.96393 20.6246 5.83506 21.2793 6.58252 20.8797L11.4127 18.2971C11.7803 18.1005 12.2197 18.1005 12.5873 18.2971L17.4175 20.8797C18.1649 21.2793 19.0361 20.6246 18.8781 19.7819L17.8785 14.4514C17.7925 13.9932 17.9589 13.5238 18.3126 13.2262L22.1339 10.0113C22.8049 9.44687 22.5027 8.34227 21.6411 8.21013L16.5115 7.4234C16.1333 7.36538 15.8014 7.1361 15.6094 6.80011L12.8723 2.01011Z" fill="#ED4E51"/>
</svg>
