<svg width="32" height="32" viewBox="0 0 32 32" fill="none" xmlns="http://www.w3.org/2000/svg">
<path d="M28.9748 8.00955C29.0521 7.90041 28.938 7.75949 28.8144 7.80804C27.9364 8.15305 27.0187 8.38583 26.0827 8.50055C27.1249 7.86935 27.9292 6.9085 28.3752 5.77093C28.4206 5.65505 28.2958 5.55156 28.1881 5.61185C27.2194 6.15416 26.1747 6.54466 25.0895 6.76956C25.044 6.77897 24.9972 6.7633 24.9653 6.72918C24.1509 5.85807 23.0789 5.27806 21.9102 5.07763C20.717 4.87299 19.4905 5.07561 18.4232 5.65372C17.3558 6.23183 16.5079 7.15272 16.0124 8.27197C15.5414 9.33615 15.4142 10.5224 15.6466 11.6617C15.6646 11.7501 15.5964 11.8336 15.5075 11.828C13.396 11.695 11.333 11.1257 9.44547 10.1543C7.56277 9.18535 5.8956 7.83739 4.54547 6.19355C4.48555 6.1206 4.37199 6.13004 4.32833 6.21402C3.90822 7.02216 3.68826 7.9229 3.68886 8.83836C3.68715 9.74962 3.90775 10.6472 4.33102 11.4511C4.75429 12.255 5.36708 12.9404 6.11485 13.4461C5.32184 13.4242 4.54428 13.2255 3.83715 12.8652C3.74602 12.8187 3.6367 12.8849 3.64144 12.9881C3.69659 14.1897 4.13174 15.396 4.88495 16.3215C5.68648 17.3064 6.799 17.9804 8.03432 18.2295C7.55879 18.3762 7.06509 18.4536 6.56806 18.4593C6.29755 18.4561 6.02756 18.4358 5.75966 18.3987C5.66033 18.3849 5.57922 18.4806 5.614 18.5759C5.98245 19.5859 6.63337 20.4673 7.48924 21.1106C8.40425 21.7984 9.50801 22.18 10.6469 22.2022C8.72373 23.7362 6.3493 24.5735 3.90213 24.5804C3.65068 24.5813 3.39933 24.573 3.14858 24.5557C3.00728 24.5459 2.94229 24.7368 3.06409 24.81C5.44845 26.2444 8.17373 27.0026 10.9535 26.9992C13.0059 27.0208 15.0419 26.6276 16.9427 25.8426C18.8435 25.0576 20.5709 23.8965 22.024 22.4272C23.4772 20.9579 24.627 19.2097 25.4063 17.2849C26.1855 15.3601 26.5786 13.2971 26.5625 11.2166V10.5682C26.5625 10.5255 26.5824 10.4854 26.616 10.4597C27.5201 9.76767 28.3152 8.94147 28.9748 8.00955Z" fill="#9B9B9B"/>
</svg>
