<svg width="40" height="40" viewBox="0 0 40 40" fill="none" xmlns="http://www.w3.org/2000/svg">
<path d="M21.4538 3.35019C20.8061 2.21661 19.1939 2.2166 18.5462 3.35019L13.9843 11.3335C13.6643 11.8935 13.1112 12.2756 12.4808 12.3723L3.93149 13.6835C2.49558 13.9038 1.99189 15.7448 3.11017 16.6856L9.47904 22.0437C10.0686 22.5396 10.3458 23.322 10.2026 24.0857L8.53658 32.9699C8.27322 34.3743 9.72511 35.4655 10.9709 34.7994L19.0211 30.4951C19.6338 30.1675 20.3662 30.1675 20.9789 30.4951L29.0291 34.7994C30.2749 35.4655 31.7268 34.3743 31.4634 32.9699L29.7974 24.0857C29.6542 23.322 29.9314 22.5396 30.521 22.0437L36.8898 16.6856C38.0081 15.7448 37.5044 13.9038 36.0685 13.6835L27.5192 12.3723C26.8888 12.2756 26.3357 11.8935 26.0157 11.3335L21.4538 3.35019Z" fill="#FFC700"/>
</svg>
