<svg width="24" height="24" viewBox="0 0 24 24" fill="none" xmlns="http://www.w3.org/2000/svg">
<path d="M11.4378 4C10.978 4.00001 10.5472 4.21993 10.2845 4.58887L6.03564 10.5541C5.23778 11.6743 4.88217 13.0392 5.03468 14.396L5.3614 17.3029C5.50102 18.5452 6.49847 19.5291 7.76773 19.6767L9.89325 19.9239C11.5164 20.1127 13.1621 19.9491 14.7131 19.4447C15.7988 19.0917 16.6684 18.286 17.0873 17.2451L18.8028 12.983C18.8858 12.7768 18.9431 12.5616 18.9736 12.3421C19.239 10.4308 17.4725 8.84734 15.5478 9.27134L11.6343 10.1335L12.7988 5.71715C13.0282 4.84746 12.3565 3.99999 11.4378 4Z" fill="#3EA436"/>
</svg>
