<svg width="24" height="24" viewBox="0 0 24 24" fill="none" xmlns="http://www.w3.org/2000/svg">
<path d="M12.5623 20C13.0221 20 13.4529 19.7801 13.7157 19.4111L17.9645 13.4459C18.7623 12.3257 19.1179 10.9608 18.9654 9.60395L18.6387 6.69705C18.4991 5.45484 17.5017 4.47089 16.2324 4.32327L14.1069 4.07607C12.4837 3.88729 10.838 4.05093 9.28698 4.5553C8.20132 4.90834 7.33174 5.71397 6.91279 6.75488L5.19734 11.017C5.11437 11.2232 5.05702 11.4384 5.02654 11.6579C4.76117 13.5692 6.52764 15.1527 8.45228 14.7287L12.2379 13.8947C12.2575 13.8904 12.2698 13.8923 12.2786 13.895C12.2893 13.8983 12.3017 13.9052 12.313 13.9166C12.3242 13.9279 12.3309 13.9403 12.334 13.9509C12.3365 13.9595 12.3381 13.9716 12.3331 13.9907L11.2013 18.2828C10.972 19.1525 11.6437 20 12.5623 20Z" fill="#FF2C2F"/>
</svg>
