<svg width="46" height="39" viewBox="0 0 46 39" fill="none" xmlns="http://www.w3.org/2000/svg">
<g clip-path="url(#clip0_1150_1390)">
<path d="M46.0253 27.178H40.3291V38.7203H46.0253V27.178Z" fill="#494949"/>
<path d="M38.4808 0.152544H32.7846V11.6949H38.4808V0.152544Z" fill="#ED4E51"/>
<path d="M7.06329 39C5.62025 39 4.58228 38.5169 3.92405 37.5254C3.26582 36.5339 2.93671 35.0847 2.93671 33.1525V27.178H8.60759V33.0254C8.60759 33.7373 8.68354 34.2458 8.81012 34.5763C8.93671 34.9068 9.21519 35.0593 9.59493 35.0593C10 35.0593 10.2785 34.8559 10.3797 34.4492C10.5063 34.0424 10.557 33.4068 10.557 32.5169V27.1525H15.8987V38.6949H10.1013V38.339C10.7595 37.7034 11.2152 36.8644 11.4684 35.822C11.7215 34.7797 11.8481 33.483 11.8481 31.9068H11.2405C11.2405 32.6441 11.1899 33.4322 11.0886 34.2712C10.9873 35.1102 10.7848 35.8729 10.481 36.5847C10.1772 37.2712 9.74683 37.8559 9.18987 38.3136C8.65822 38.7712 7.94936 39 7.06329 39Z" fill="#494949"/>
<path d="M21.9492 25.4237C20.5061 25.4237 19.4682 24.9407 18.8099 23.9492C18.1517 22.9576 17.8226 21.5085 17.8226 19.5763V13.6271H23.4935V19.4746C23.4935 20.1864 23.5694 20.6949 23.696 21.0254C23.8226 21.3559 24.1011 21.5085 24.4808 21.5085C24.8859 21.5085 25.1644 21.3051 25.2656 20.8983C25.3922 20.4915 25.4429 19.8559 25.4429 18.9661V13.6271H30.7846V25.1695H25.0125V24.8136C25.6707 24.178 26.1264 23.339 26.3796 22.2966C26.6327 21.2542 26.7593 19.9576 26.7593 18.3814H26.1517C26.1517 19.1186 26.1011 19.9068 25.9998 20.7458C25.8985 21.5847 25.696 22.3475 25.3922 23.0593C25.0884 23.7458 24.658 24.3305 24.1011 24.7881C23.5694 25.1949 22.8353 25.4237 21.9492 25.4237Z" fill="#494949"/>
<path d="M7.92405 31.0932C6.45569 31.0932 5.11392 30.9407 3.89873 30.6356C2.68354 30.3305 1.5443 29.8729 0.506326 29.2881L0.303795 29.1864L1.97468 24.9153L2.22785 25.0678C2.70886 25.3475 3.26582 25.6017 3.89873 25.8559C4.50633 26.0847 5.16455 26.2119 5.87342 26.2119C6.63291 26.2119 7.29114 26.1102 7.8481 25.8814C8.40506 25.6525 8.88607 25.3475 9.29114 24.9661C9.6962 24.5847 10.0253 24.1525 10.2785 23.6441C10.5316 23.1356 10.7342 22.5763 10.8861 21.9915C11.038 21.4068 11.1392 20.7966 11.1899 20.1864C11.2405 19.678 11.2658 19.1695 11.2658 18.6864H11.1392C11.1139 19.3729 11.038 20.0847 10.9114 20.8475C10.7595 21.6864 10.481 22.4746 10.1013 23.1864C9.72152 23.8983 9.18987 24.5085 8.55696 24.9661C7.89873 25.4492 7.06329 25.678 6.07595 25.678C4.48101 25.678 3.21519 25.1441 2.3038 24.0508C1.3924 22.983 0.936706 21.4576 0.936706 19.5C0.936706 18.483 1.0886 17.5678 1.36709 16.7797C1.67088 15.9915 2.05063 15.3305 2.50633 14.822C2.98734 14.2881 3.51898 13.8814 4.12658 13.6271C4.73417 13.3729 5.34177 13.2203 5.94936 13.2203C6.65823 13.2203 7.26582 13.2966 7.77215 13.4237C8.27848 13.5508 8.73417 13.7542 9.0886 14.0085C9.44304 14.2627 9.77215 14.5424 10 14.8729C10.2025 15.1525 10.4051 15.4576 10.557 15.7627H10.6329C10.6076 15.661 10.557 15.5593 10.5063 15.4068C10.3797 15.1017 10.1772 14.7966 9.89873 14.4915L9.82278 14.4153V13.3729H16.0759L16.1013 18.8136C16.1013 20.7458 15.9494 22.5 15.6709 24C15.3924 25.5254 14.9114 26.822 14.2785 27.8644C13.6203 28.9068 12.7595 29.7203 11.7215 30.2797C10.6835 30.8136 9.41772 31.0932 7.92405 31.0932Z" fill="#494949"/>
<path d="M5.94937 13.4492C6.63291 13.4492 7.21519 13.5254 7.72152 13.6525C8.20253 13.7797 8.63291 13.9576 8.96203 14.1864C9.31646 14.4153 9.59494 14.6949 9.82278 15C10.0506 15.3051 10.2532 15.6356 10.4304 15.9915H10.9367C10.9367 15.8644 10.8608 15.6102 10.7342 15.2797C10.6076 14.9492 10.3797 14.6186 10.0759 14.2881V13.6017H15.8228L15.8481 18.8136C15.8481 20.7458 15.6962 22.4746 15.4177 23.9492C15.1392 25.4492 14.6835 26.6949 14.0506 27.7119C13.4177 28.7288 12.6076 29.4915 11.5949 30.0254C10.5823 30.5593 9.36709 30.8136 7.89873 30.8136C6.4557 30.8136 5.11392 30.661 3.92405 30.3559C2.73418 30.0508 1.62025 29.6186 0.607595 29.0339L2.07595 25.2458C2.55696 25.5254 3.13924 25.7797 3.77215 26.0339C4.40506 26.2881 5.11392 26.4153 5.8481 26.4153C6.63291 26.4153 7.34177 26.2881 7.92405 26.0593C8.50633 25.8305 9.01266 25.5 9.44304 25.0932C9.87342 24.6864 10.2025 24.2288 10.481 23.6949C10.7595 23.161 10.962 22.6017 11.1139 21.9915C11.2658 21.3814 11.3671 20.7712 11.443 20.161C11.4937 19.5508 11.5443 18.9407 11.5443 18.3814H10.8861C10.8861 19.1441 10.8101 19.9322 10.6582 20.7458C10.5063 21.6102 10.2278 22.3729 9.87342 23.0593C9.51899 23.7458 9.01266 24.3051 8.40506 24.7627C7.79747 25.2203 7.01266 25.4237 6.07595 25.4237C4.55696 25.4237 3.36709 24.9153 2.50633 23.8983C1.64557 22.8814 1.18987 21.4068 1.18987 19.5C1.18987 18.5085 1.34177 17.6186 1.62025 16.8814C1.89873 16.1186 2.27848 15.5085 2.70886 15C3.16456 14.4915 3.67089 14.1102 4.25316 13.8559C4.81013 13.5763 5.39241 13.4492 5.94937 13.4492ZM5.94937 12.9407C5.31646 12.9407 4.68354 13.0932 4.02532 13.3729C3.39241 13.6525 2.81013 14.0847 2.3038 14.6441C1.82278 15.2034 1.41772 15.8898 1.11392 16.7034C0.810127 17.5169 0.658228 18.4576 0.658228 19.5C0.658228 21.5085 1.13924 23.1102 2.07595 24.2288C3.03797 25.3729 4.37975 25.9322 6.05063 25.9322C6.27848 25.9322 6.48101 25.9322 6.68354 25.9068C6.43038 25.9322 6.12658 25.9576 5.8481 25.9576C5.18987 25.9576 4.55696 25.8305 3.97468 25.6017C3.36709 25.3475 2.81013 25.0932 2.32911 24.839L1.82278 24.5593L1.62025 25.1186L0.151899 28.9068L0 29.2881L0.379747 29.5169C1.44304 30.1271 2.60759 30.5847 3.82278 30.8898C5.03797 31.1949 6.43038 31.3475 7.92405 31.3475C9.44304 31.3475 10.7848 31.0678 11.8481 30.4831C12.9367 29.9237 13.8228 29.0847 14.5063 27.9915C15.1646 26.9237 15.6456 25.6017 15.9494 24.0508C16.2278 22.5254 16.3797 20.7712 16.3797 18.8136L16.3544 13.5763V13.0678H15.8481H10.0759H9.56962V13.5763V13.9831C9.46835 13.9068 9.36709 13.8305 9.24051 13.7542C8.86076 13.5 8.37975 13.2966 7.8481 13.1441C7.31646 13.0169 6.68354 12.9407 5.94937 12.9407Z" fill="white"/>
<path d="M34.3036 27.0508C35.7466 27.0508 36.7846 27.5339 37.4429 28.4746C38.1011 29.4153 38.4302 30.8644 38.4302 32.7966V38.7203H32.7593V32.8729C32.7593 32.161 32.6834 31.6525 32.5568 31.322C32.4302 30.9915 32.1517 30.839 31.7467 30.839C31.3416 30.839 31.0631 31.0424 30.9618 31.4492C30.8353 31.8559 30.7846 32.4915 30.7846 33.3814V38.7458H25.1137V32.8983C25.1137 32.1864 25.0631 31.678 24.9365 31.3475C24.8099 31.017 24.5568 30.8644 24.1517 30.8644C23.7467 30.8644 23.4682 31.0678 23.3669 31.4746C23.2403 31.8814 23.1897 32.517 23.1897 33.4068V38.7712H17.8226V27.2288H23.5948V27.661C23.2656 28.017 23.0125 28.4492 22.7846 28.9322C22.5568 29.4153 22.3796 29.9492 22.253 30.5085C22.1264 31.0678 22.0251 31.6525 21.9492 32.2627C21.8985 32.8729 21.8479 33.4831 21.8479 34.0678H22.5315C22.5315 33.3305 22.5821 32.5424 22.6834 31.7288C22.7846 30.9153 22.9872 30.1525 23.2656 29.4661C23.5441 28.7797 23.9745 28.1949 24.5061 27.7627C25.0378 27.3051 25.772 27.1017 26.658 27.1017C28.3796 27.1017 29.5441 27.7881 30.1517 29.1356C29.8732 29.822 29.6707 30.5085 29.5441 31.2458C29.4175 31.9831 29.3669 32.9237 29.3669 34.0678H30.0251C30.0251 33.3305 30.0758 32.5678 30.1517 31.7542C30.2277 30.9407 30.4302 30.178 30.734 29.4915C31.0378 28.8051 31.4682 28.2203 32.0251 27.7881C32.5821 27.2797 33.3416 27.0508 34.3036 27.0508Z" fill="#494949"/>
<path d="M7.94936 19.8305C8.25316 19.8305 8.53164 19.7542 8.81012 19.6271C9.0886 19.5 9.31645 19.322 9.49367 19.0932C9.6962 18.8644 9.8481 18.5847 9.94936 18.2797C10.0759 17.9746 10.1266 17.6186 10.1266 17.2627C10.1266 16.9322 10.0759 16.6017 9.97468 16.2966C9.87342 15.9915 9.72152 15.7373 9.51898 15.5085C9.31645 15.2797 9.08861 15.1017 8.83544 14.9746C8.58228 14.8475 8.30379 14.7712 7.97468 14.7712C7.6962 14.7712 7.41772 14.8475 7.13924 14.9746C6.88607 15.1017 6.65823 15.2797 6.45569 15.5085C6.25316 15.7373 6.10126 15.9915 6 16.2966C5.89873 16.6017 5.8481 16.9322 5.8481 17.2881C5.8481 18 6.05063 18.5847 6.45569 19.0932C6.83544 19.5763 7.34177 19.8305 7.94936 19.8305Z" fill="white"/>
<path d="M10.2276 11.6949V10.8305C10.5061 10.3475 10.6833 9.83898 10.7593 9.33051C10.8099 8.82203 10.8606 8.38983 10.8606 8.0339H10.177C10.1264 9.30509 9.77195 10.2712 9.08841 10.9576C8.40486 11.6441 7.41752 12 6.10106 12C5.44284 12 4.88587 11.8983 4.40486 11.7203C3.92385 11.5169 3.51879 11.2627 3.21499 10.9576C2.91119 10.6525 2.68334 10.2966 2.53144 9.91525C2.37955 9.5339 2.3036 9.17797 2.3036 8.79661C2.3036 8.05932 2.43018 7.42373 2.70866 6.91525C2.98714 6.38136 3.34157 5.97458 3.79727 5.64407C4.25296 5.31356 4.80993 5.08475 5.41752 4.9322C6.05043 4.77966 6.73398 4.72881 7.46815 4.72881C8.07575 4.75424 8.58208 4.83051 9.01246 5.00847C9.44284 5.18644 9.74663 5.41525 9.92385 5.69492H10.6327C10.5061 5.28814 10.3036 4.98305 10.0757 4.72881C9.8479 4.47458 9.59474 4.29661 9.29094 4.14407C8.98714 4.01695 8.65803 3.91525 8.3036 3.86441C7.94917 3.81356 7.59474 3.78814 7.21499 3.78814C6.53144 3.78814 5.87322 3.86441 5.24031 4.04237C4.60739 4.22034 4.05043 4.44915 3.51879 4.70339L2.4555 1.34746C4.25296 0.457627 6.37955 0 8.88587 0C9.92385 0 10.8859 0.101695 11.7213 0.330508C12.5821 0.533898 13.3163 0.864407 13.9239 1.32203C14.5314 1.77966 15.0125 2.33898 15.3416 3.02542C15.6707 3.71186 15.8226 4.55085 15.8226 5.51695V11.6949H10.2276Z" fill="#ED4E51"/>
<path d="M9.87342 6.9661C9.87342 6.61017 9.74683 6.27966 9.49367 6.02542C9.2405 5.77119 8.93671 5.64407 8.55696 5.64407C8.20253 5.64407 7.87342 5.77119 7.64557 6.02542C7.3924 6.27966 7.29114 6.58475 7.29114 6.9661C7.29114 7.34746 7.41772 7.65254 7.64557 7.88136C7.89873 8.13559 8.20253 8.23729 8.55696 8.23729C8.91139 8.23729 9.2405 8.11017 9.49367 7.88136C9.74683 7.62712 9.87342 7.32203 9.87342 6.9661Z" fill="white"/>
<path d="M26.6585 0.0254211C28.1015 0.0254211 29.1395 0.508472 29.7977 1.44915C30.456 2.38983 30.7851 3.83898 30.7851 5.77118V11.6949H25.1395V5.84746C25.1395 5.13559 25.0635 4.62712 24.937 4.29661C24.8104 3.9661 24.5319 3.81356 24.1522 3.81356C23.7471 3.81356 23.4686 4.01695 23.3673 4.42373C23.2408 4.83051 23.1901 5.4661 23.1901 6.35593V11.6949H17.8484V0.15254H23.6205V0.584743C23.0635 1.22034 22.6079 2.05932 22.3041 3.07627C22.0003 4.09322 21.8484 5.38983 21.8484 6.99152H22.4306C22.4306 6.25423 22.4813 5.4661 22.6079 4.65254C22.7344 3.83898 22.937 3.07627 23.2408 2.38983C23.5446 1.70339 23.9749 1.11864 24.5319 0.686438C25.0635 0.254235 25.7724 0.0254211 26.6585 0.0254211Z" fill="#ED4E51"/>
<path d="M32.7848 25.1441C32.7848 23.2881 32.7848 21.3559 32.7848 19.3729C32.7848 17.3898 32.7848 15.4576 32.7595 13.6017H38.5316V14.2119C38 15.2034 37.6203 16.1695 37.3924 17.161C37.1392 18.1525 37.038 19.2458 37.038 20.4661H37.6962C37.6962 19.7797 37.7722 19.0169 37.9241 18.2034C38.0759 17.3898 38.3291 16.6271 38.7089 15.9407C39.0633 15.2542 39.5696 14.6695 40.1772 14.1864C40.7848 13.7288 41.5696 13.4746 42.481 13.4746V18.2288C42.0253 18.2288 41.5949 18.2797 41.1392 18.4068C40.6835 18.5339 40.2785 18.7373 39.924 18.9915C39.5696 19.2712 39.2658 19.6017 39.0127 20.0339C38.7848 20.4661 38.6582 20.9746 38.6582 21.5847V25.1441H32.7848Z" fill="#494949"/>
</g>
<defs>
<clipPath id="clip0_1150_1390">
<rect width="46" height="39" fill="white"/>
</clipPath>
</defs>
</svg>
