<svg width="46" height="39" viewBox="0 0 46 39" fill="none" xmlns="http://www.w3.org/2000/svg">
<g clip-path="url(#clip0_1182_837)">
<path d="M46.0253 27.178H40.3291V38.7204H46.0253V27.178Z" fill="#494949"/>
<path d="M38.4808 0.152588H32.7846V11.695H38.4808V0.152588Z" fill="#ED4E51"/>
<path d="M7.06329 39C5.62025 39 4.58228 38.517 3.92405 37.5255C3.26582 36.5339 2.93671 35.0848 2.93671 33.1526V27.178H8.60759V33.0255C8.60759 33.7373 8.68354 34.2458 8.81012 34.5763C8.93671 34.9068 9.21519 35.0594 9.59493 35.0594C10 35.0594 10.2785 34.856 10.3797 34.4492C10.5063 34.0424 10.557 33.4068 10.557 32.517V27.1526H15.8987V38.695H10.1013V38.339C10.7595 37.7034 11.2152 36.8645 11.4684 35.8221C11.7215 34.7797 11.8481 33.4831 11.8481 31.9068H11.2405C11.2405 32.6441 11.1899 33.4322 11.0886 34.2712C10.9873 35.1102 10.7848 35.8729 10.481 36.5848C10.1772 37.2712 9.74683 37.856 9.18987 38.3136C8.65822 38.7712 7.94936 39 7.06329 39Z" fill="#494949"/>
<path d="M21.9492 25.4238C20.5061 25.4238 19.4682 24.9408 18.8099 23.9492C18.1517 22.9577 17.8226 21.5086 17.8226 19.5763V13.6272H23.4935V19.4747C23.4935 20.1865 23.5694 20.695 23.696 21.0255C23.8226 21.356 24.1011 21.5086 24.4808 21.5086C24.8859 21.5086 25.1644 21.3052 25.2656 20.8984C25.3922 20.4916 25.4429 19.856 25.4429 18.9662V13.6272H30.7846V25.1696H25.0125V24.8136C25.6707 24.178 26.1264 23.3391 26.3796 22.2967C26.6327 21.2543 26.7593 19.9577 26.7593 18.3814H26.1517C26.1517 19.1187 26.1011 19.9069 25.9998 20.7458C25.8985 21.5848 25.696 22.3475 25.3922 23.0594C25.0884 23.7458 24.658 24.3306 24.1011 24.7882C23.5694 25.195 22.8353 25.4238 21.9492 25.4238Z" fill="#494949"/>
<path d="M7.92405 31.0931C6.45569 31.0931 5.11392 30.9406 3.89873 30.6355C2.68354 30.3304 1.5443 29.8728 0.506326 29.288L0.303795 29.1863L1.97468 24.9151L2.22785 25.0677C2.70886 25.3473 3.26582 25.6016 3.89873 25.8558C4.50633 26.0846 5.16455 26.2117 5.87342 26.2117C6.63291 26.2117 7.29114 26.11 7.8481 25.8812C8.40506 25.6524 8.88607 25.3473 9.29114 24.966C9.6962 24.5846 10.0253 24.1524 10.2785 23.6439C10.5316 23.1355 10.7342 22.5761 10.8861 21.9914C11.038 21.4067 11.1392 20.7965 11.1899 20.1863C11.2405 19.6778 11.2658 19.1694 11.2658 18.6863H11.1392C11.1139 19.3728 11.038 20.0846 10.9114 20.8473C10.7595 21.6863 10.481 22.4745 10.1013 23.1863C9.72152 23.8982 9.18987 24.5083 8.55696 24.966C7.89873 25.449 7.06329 25.6778 6.07595 25.6778C4.48101 25.6778 3.21519 25.1439 2.3038 24.0507C1.3924 22.9829 0.936706 21.4575 0.936706 19.4999C0.936706 18.4829 1.0886 17.5677 1.36709 16.7795C1.67088 15.9914 2.05063 15.3304 2.50633 14.8219C2.98734 14.288 3.51898 13.8812 4.12658 13.627C4.73417 13.3728 5.34177 13.2202 5.94936 13.2202C6.65823 13.2202 7.26582 13.2965 7.77215 13.4236C8.27848 13.5507 8.73417 13.7541 9.0886 14.0084C9.44304 14.2626 9.77215 14.5422 10 14.8728C10.2025 15.1524 10.4051 15.4575 10.557 15.7626H10.6329C10.6076 15.6609 10.557 15.5592 10.5063 15.4067C10.3797 15.1016 10.1772 14.7965 9.89873 14.4914L9.82278 14.4151V13.3728H16.0759L16.1013 18.8134C16.1013 20.7456 15.9494 22.4999 15.6709 23.9999C15.3924 25.5253 14.9114 26.8219 14.2785 27.8643C13.6203 28.9067 12.7595 29.7202 11.7215 30.2795C10.6835 30.8134 9.41772 31.0931 7.92405 31.0931Z" fill="#494949"/>
<path d="M5.94937 13.4491C6.63291 13.4491 7.21519 13.5254 7.72152 13.6525C8.20253 13.7797 8.63291 13.9576 8.96203 14.1864C9.31646 14.4152 9.59494 14.6949 9.82278 15C10.0506 15.3051 10.2532 15.6356 10.4304 15.9915H10.9367C10.9367 15.8644 10.8608 15.6102 10.7342 15.2797C10.6076 14.9491 10.3797 14.6186 10.0759 14.2881V13.6017H15.8228L15.8481 18.8136C15.8481 20.7458 15.6962 22.4746 15.4177 23.9491C15.1392 25.4491 14.6835 26.6949 14.0506 27.7119C13.4177 28.7288 12.6076 29.4915 11.5949 30.0254C10.5823 30.5593 9.36709 30.8136 7.89873 30.8136C6.4557 30.8136 5.11392 30.661 3.92405 30.3559C2.73418 30.0508 1.62025 29.6186 0.607595 29.0339L2.07595 25.2458C2.55696 25.5254 3.13924 25.7797 3.77215 26.0339C4.40506 26.2881 5.11392 26.4153 5.8481 26.4153C6.63291 26.4153 7.34177 26.2881 7.92405 26.0593C8.50633 25.8305 9.01266 25.5 9.44304 25.0932C9.87342 24.6864 10.2025 24.2288 10.481 23.6949C10.7595 23.161 10.962 22.6017 11.1139 21.9915C11.2658 21.3814 11.3671 20.7712 11.443 20.161C11.4937 19.5508 11.5443 18.9407 11.5443 18.3814H10.8861C10.8861 19.1441 10.8101 19.9322 10.6582 20.7458C10.5063 21.6102 10.2278 22.3729 9.87342 23.0593C9.51899 23.7458 9.01266 24.3051 8.40506 24.7627C7.79747 25.2203 7.01266 25.4237 6.07595 25.4237C4.55696 25.4237 3.36709 24.9152 2.50633 23.8983C1.64557 22.8814 1.18987 21.4068 1.18987 19.5C1.18987 18.5085 1.34177 17.6186 1.62025 16.8814C1.89873 16.1186 2.27848 15.5085 2.70886 15C3.16456 14.4915 3.67089 14.1102 4.25316 13.8559C4.81013 13.5763 5.39241 13.4491 5.94937 13.4491ZM5.94937 12.9407C5.31646 12.9407 4.68354 13.0932 4.02532 13.3729C3.39241 13.6525 2.81013 14.0847 2.3038 14.6441C1.82278 15.2034 1.41772 15.8898 1.11392 16.7034C0.810127 17.5169 0.658228 18.4576 0.658228 19.5C0.658228 21.5085 1.13924 23.1102 2.07595 24.2288C3.03797 25.3729 4.37975 25.9322 6.05063 25.9322C6.27848 25.9322 6.48101 25.9322 6.68354 25.9068C6.43038 25.9322 6.12658 25.9576 5.8481 25.9576C5.18987 25.9576 4.55696 25.8305 3.97468 25.6017C3.36709 25.3475 2.81013 25.0932 2.32911 24.839L1.82278 24.5593L1.62025 25.1186L0.151899 28.9068L0 29.2881L0.379747 29.5169C1.44304 30.1271 2.60759 30.5847 3.82278 30.8898C5.03797 31.1949 6.43038 31.3475 7.92405 31.3475C9.44304 31.3475 10.7848 31.0678 11.8481 30.483C12.9367 29.9237 13.8228 29.0847 14.5063 27.9915C15.1646 26.9237 15.6456 25.6017 15.9494 24.0508C16.2278 22.5254 16.3797 20.7712 16.3797 18.8136L16.3544 13.5763V13.0678H15.8481H10.0759H9.56962V13.5763V13.983C9.46835 13.9068 9.36709 13.8305 9.24051 13.7542C8.86076 13.5 8.37975 13.2966 7.8481 13.1441C7.31646 13.0169 6.68354 12.9407 5.94937 12.9407Z" fill="white"/>
<path d="M34.3036 27.0508C35.7466 27.0508 36.7846 27.5338 37.4429 28.4745C38.1011 29.4152 38.4302 30.8643 38.4302 32.7965V38.7203H32.7593V32.8728C32.7593 32.161 32.6834 31.6525 32.5568 31.322C32.4302 30.9915 32.1517 30.8389 31.7467 30.8389C31.3416 30.8389 31.0631 31.0423 30.9618 31.4491C30.8353 31.8559 30.7846 32.4915 30.7846 33.3813V38.7457H25.1137V32.8982C25.1137 32.1864 25.0631 31.6779 24.9365 31.3474C24.8099 31.0169 24.5568 30.8643 24.1517 30.8643C23.7467 30.8643 23.4682 31.0677 23.3669 31.4745C23.2403 31.8813 23.1897 32.5169 23.1897 33.4067V38.7711H17.8226V27.2287H23.5948V27.661C23.2656 28.0169 23.0125 28.4491 22.7846 28.9321C22.5568 29.4152 22.3796 29.9491 22.253 30.5084C22.1264 31.0677 22.0251 31.6525 21.9492 32.2626C21.8985 32.8728 21.8479 33.483 21.8479 34.0677H22.5315C22.5315 33.3304 22.5821 32.5423 22.6834 31.7287C22.7846 30.9152 22.9872 30.1525 23.2656 29.466C23.5441 28.7796 23.9745 28.1948 24.5061 27.7626C25.0378 27.305 25.772 27.1016 26.658 27.1016C28.3796 27.1016 29.5441 27.7881 30.1517 29.1355C29.8732 29.822 29.6707 30.5084 29.5441 31.2457C29.4175 31.983 29.3669 32.9237 29.3669 34.0677H30.0251C30.0251 33.3304 30.0758 32.5677 30.1517 31.7542C30.2277 30.9406 30.4302 30.1779 30.734 29.4915C31.0378 28.805 31.4682 28.2203 32.0251 27.7881C32.5821 27.2796 33.3416 27.0508 34.3036 27.0508Z" fill="#494949"/>
<path d="M7.94936 19.8306C8.25316 19.8306 8.53164 19.7543 8.81012 19.6272C9.0886 19.5001 9.31645 19.3221 9.49367 19.0933C9.6962 18.8645 9.8481 18.5848 9.94936 18.2797C10.0759 17.9746 10.1266 17.6187 10.1266 17.2628C10.1266 16.9323 10.0759 16.6017 9.97468 16.2967C9.87342 15.9916 9.72152 15.7373 9.51898 15.5085C9.31645 15.2797 9.08861 15.1017 8.83544 14.9746C8.58228 14.8475 8.30379 14.7712 7.97468 14.7712C7.6962 14.7712 7.41772 14.8475 7.13924 14.9746C6.88607 15.1017 6.65823 15.2797 6.45569 15.5085C6.25316 15.7373 6.10126 15.9916 6 16.2967C5.89873 16.6017 5.8481 16.9323 5.8481 17.2882C5.8481 18.0001 6.05063 18.5848 6.45569 19.0933C6.83544 19.5763 7.34177 19.8306 7.94936 19.8306Z" fill="white"/>
<path d="M10.2276 11.6949V10.8305C10.5061 10.3475 10.6833 9.83898 10.7593 9.33051C10.8099 8.82203 10.8606 8.38983 10.8606 8.0339H10.177C10.1264 9.30509 9.77195 10.2712 9.08841 10.9576C8.40486 11.6441 7.41752 12 6.10106 12C5.44284 12 4.88587 11.8983 4.40486 11.7203C3.92385 11.5169 3.51879 11.2627 3.21499 10.9576C2.91119 10.6525 2.68334 10.2966 2.53144 9.91525C2.37955 9.5339 2.3036 9.17797 2.3036 8.79661C2.3036 8.05932 2.43018 7.42373 2.70866 6.91525C2.98714 6.38136 3.34157 5.97458 3.79727 5.64407C4.25296 5.31356 4.80993 5.08475 5.41752 4.9322C6.05043 4.77966 6.73398 4.72881 7.46815 4.72881C8.07575 4.75424 8.58208 4.83051 9.01246 5.00847C9.44284 5.18644 9.74663 5.41525 9.92385 5.69492H10.6327C10.5061 5.28814 10.3036 4.98305 10.0757 4.72881C9.8479 4.47458 9.59474 4.29661 9.29094 4.14407C8.98714 4.01695 8.65803 3.91525 8.3036 3.86441C7.94917 3.81356 7.59474 3.78814 7.21499 3.78814C6.53144 3.78814 5.87322 3.86441 5.24031 4.04237C4.60739 4.22034 4.05043 4.44915 3.51879 4.70339L2.4555 1.34746C4.25296 0.457627 6.37955 0 8.88587 0C9.92385 0 10.8859 0.101695 11.7213 0.330508C12.5821 0.533898 13.3163 0.864407 13.9239 1.32203C14.5314 1.77966 15.0125 2.33898 15.3416 3.02542C15.6707 3.71186 15.8226 4.55085 15.8226 5.51695V11.6949H10.2276Z" fill="#ED4E51"/>
<path d="M9.87342 6.96608C9.87342 6.61014 9.74683 6.27964 9.49367 6.0254C9.2405 5.77116 8.93671 5.64404 8.55696 5.64404C8.20253 5.64404 7.87342 5.77116 7.64557 6.0254C7.3924 6.27964 7.29114 6.58472 7.29114 6.96608C7.29114 7.34743 7.41772 7.65252 7.64557 7.88133C7.89873 8.13557 8.20253 8.23726 8.55696 8.23726C8.91139 8.23726 9.2405 8.11014 9.49367 7.88133C9.74683 7.62709 9.87342 7.32201 9.87342 6.96608Z" fill="white"/>
<path d="M26.6585 0.0253906C28.1015 0.0253906 29.1395 0.508441 29.7977 1.44912C30.456 2.3898 30.7851 3.83895 30.7851 5.77115V11.6949H25.1395V5.84742C25.1395 5.13556 25.0635 4.62709 24.937 4.29658C24.8104 3.96607 24.5319 3.81353 24.1522 3.81353C23.7471 3.81353 23.4686 4.01692 23.3673 4.4237C23.2408 4.83048 23.1901 5.46607 23.1901 6.3559V11.6949H17.8484V0.152509H23.6205V0.584713C23.0635 1.22031 22.6079 2.05929 22.3041 3.07624C22.0003 4.09319 21.8484 5.3898 21.8484 6.99149H22.4306C22.4306 6.2542 22.4813 5.46607 22.6079 4.65251C22.7344 3.83895 22.937 3.07624 23.2408 2.3898C23.5446 1.70336 23.9749 1.11861 24.5319 0.686408C25.0635 0.254204 25.7724 0.0253906 26.6585 0.0253906Z" fill="#ED4E51"/>
<path d="M32.7848 25.1441C32.7848 23.2882 32.7848 21.356 32.7848 19.3729C32.7848 17.3899 32.7848 15.4577 32.7595 13.6017H38.5316V14.2119C38 15.2034 37.6203 16.1695 37.3924 17.1611C37.1392 18.1526 37.038 19.2458 37.038 20.4661H37.6962C37.6962 19.7797 37.7722 19.017 37.9241 18.2034C38.0759 17.3899 38.3291 16.6272 38.7089 15.9407C39.0633 15.2543 39.5696 14.6695 40.1772 14.1865C40.7848 13.7288 41.5696 13.4746 42.481 13.4746V18.2288C42.0253 18.2288 41.5949 18.2797 41.1392 18.4068C40.6835 18.5339 40.2785 18.7373 39.924 18.9916C39.5696 19.2712 39.2658 19.6017 39.0127 20.0339C38.7848 20.4661 38.6582 20.9746 38.6582 21.5848V25.1441H32.7848Z" fill="#494949"/>
</g>
<defs>
<clipPath id="clip0_1182_837">
<rect width="46" height="39" fill="white"/>
</clipPath>
</defs>
</svg>
