<svg width="24" height="24" viewBox="0 0 24 24" fill="none" xmlns="http://www.w3.org/2000/svg">
<path fill-rule="evenodd" clip-rule="evenodd" d="M11.4898 4.11079C8.68908 2.43037 5.26382 2.15591 2.23127 3.36893C1.78957 3.54561 1.49994 3.9734 1.49994 4.44912V16.108C1.49994 16.889 2.2887 17.423 3.01381 17.1329C5.49715 16.1396 8.30209 16.3644 10.5956 17.7405L11.7309 18.4216C11.8174 18.4736 11.91 18.4963 11.9999 18.4947C12.0898 18.4963 12.1825 18.4736 12.269 18.4216L13.4043 17.7405C15.6978 16.3644 18.5027 16.1396 20.9861 17.1329C21.7112 17.423 22.4999 16.889 22.4999 16.108V4.44912C22.4999 3.9734 22.2103 3.54561 21.7686 3.36893C18.7361 2.15591 15.3108 2.43037 12.5101 4.11079L11.9999 4.41688L11.4898 4.11079ZM12.7499 6.49998C12.7499 6.08576 12.4142 5.74998 11.9999 5.74998C11.5857 5.74998 11.2499 6.08576 11.2499 6.49998V16C11.2499 16.4142 11.5857 16.75 11.9999 16.75C12.4142 16.75 12.7499 16.4142 12.7499 16V6.49998Z" fill="#9A9A9A"/>
<path d="M2.72478 19.0422C4.74863 17.8616 7.25124 17.8616 9.2751 19.0422L10.3624 19.6764C11.3743 20.2667 12.6256 20.2667 13.6375 19.6764L14.7248 19.0422C16.7486 17.8616 19.2512 17.8616 21.2751 19.0422L21.3778 19.1021C21.7356 19.3109 21.8565 19.7701 21.6478 20.1279C21.4391 20.4857 20.9798 20.6065 20.622 20.3978L20.5193 20.3379C18.9625 19.4297 17.0374 19.4297 15.4806 20.3379L14.3933 20.9721C12.9144 21.8348 11.0855 21.8348 9.60655 20.9721L8.51929 20.3379C6.96248 19.4297 5.0374 19.4297 3.48058 20.3379L3.37784 20.3978C3.02005 20.6065 2.56081 20.4857 2.3521 20.1279C2.14339 19.7701 2.26425 19.3109 2.62204 19.1021L2.72478 19.0422Z" fill="#9A9A9A"/>
</svg>
