<svg width="21" height="19" viewBox="0 0 21 19" fill="none" xmlns="http://www.w3.org/2000/svg">
<path d="M11.3723 0.497035C10.9836 -0.165677 10.0164 -0.16568 9.62771 0.497035L6.89057 5.16421C6.69858 5.49158 6.36673 5.71499 5.98847 5.77151L0.858895 6.53807C-0.00265459 6.66682 -0.304863 7.7431 0.366102 8.2931L4.18742 11.4255C4.54115 11.7155 4.70747 12.1729 4.62155 12.6193L3.62195 17.8132C3.46393 18.6342 4.33507 19.2722 5.08252 18.8828L9.91267 16.3664C10.2803 16.1749 10.7197 16.1749 11.0873 16.3664L15.9175 18.8828C16.6649 19.2722 17.5361 18.6342 17.3781 17.8132L16.3785 12.6193C16.2925 12.1729 16.4589 11.7155 16.8126 11.4255L20.6339 8.2931C21.3049 7.7431 21.0027 6.66682 20.1411 6.53807L15.0115 5.77151C14.6333 5.71499 14.3014 5.49158 14.1094 5.16421L11.3723 0.497035Z" fill="#FFC700"/>
</svg>
