<svg width="24" height="24" viewBox="0 0 24 24" fill="none" xmlns="http://www.w3.org/2000/svg">
<path d="M20.7428 12.4371C20.9016 12.3489 21 12.1816 21 12C21 11.8184 20.9016 11.6511 20.7428 11.5629L18.4605 10.295C13.964 7.79689 9.22391 5.76488 4.31421 4.2306L3.64914 4.02276C3.49732 3.97532 3.33198 4.00294 3.20383 4.09716C3.07568 4.19138 3 4.34094 3 4.5V10.25C3 10.5159 3.20816 10.7353 3.47372 10.7493L4.48336 10.8025C6.94497 10.932 9.39156 11.2659 11.7979 11.8006L12.0362 11.8536C12.0892 11.8654 12.1122 11.887 12.125 11.9042C12.1411 11.926 12.1536 11.9594 12.1536 12C12.1536 12.0406 12.1411 12.0741 12.125 12.0958C12.1122 12.113 12.0892 12.1347 12.0362 12.1464L11.7979 12.1994C9.39157 12.7341 6.94496 13.068 4.48334 13.1976L3.47372 13.2507C3.20816 13.2647 3 13.4841 3 13.75V19.5C3 19.6591 3.07568 19.8086 3.20383 19.9029C3.33198 19.9971 3.49732 20.0247 3.64914 19.9772L4.31422 19.7694C9.22391 18.2351 13.964 16.2031 18.4605 13.705L20.7428 12.4371Z" fill="white"/>
</svg>
