<svg width="24" height="24" viewBox="0 0 24 24" fill="none" xmlns="http://www.w3.org/2000/svg">
<path d="M8.29696 5C5.43665 5 2.99982 7.0076 2.99982 9.61497C2.99982 11.4137 3.89709 12.928 5.08626 14.1825C6.27136 15.4326 7.80031 16.4819 9.18253 17.3602L11.5674 18.8755C11.8286 19.0415 12.1711 19.0415 12.4322 18.8755L14.8171 17.3602C16.1993 16.4819 17.7283 15.4326 18.9134 14.1825C20.1025 12.928 20.9998 11.4137 20.9998 9.61497C20.9998 7.0076 18.563 5 15.7027 5C14.2282 5 12.9308 5.64896 11.9998 6.48867C11.0688 5.64896 9.77139 5 8.29696 5Z" stroke="#878787" stroke-width="2" stroke-linecap="round" stroke-linejoin="round"/>
</svg>
