<svg width="48" height="43" viewBox="0 0 48 43" fill="none" xmlns="http://www.w3.org/2000/svg">
<path d="M19.632 0.0857277C19.4895 0.133991 19.0244 0.261551 18.6006 0.375317C16.6466 0.892441 16.0277 1.2958 15.6414 2.29901L15.5439 2.55412L14.6738 3.08504C14.1937 3.37462 13.7999 3.60905 13.7999 3.59871C13.7999 3.59182 13.8674 3.48494 13.9537 3.36773C14.1637 3.0678 14.3737 2.65065 14.5275 2.23006C14.6625 1.85429 15.0526 0.478741 15.0263 0.458054C15.0188 0.45116 14.8313 0.547691 14.61 0.668354C12.9335 1.59573 11.8721 2.56102 11.437 3.56079C11.2008 4.09859 11.1557 4.54677 11.287 5.00873L11.3658 5.27763L11.2045 5.40519C10.8332 5.69478 10.1693 6.27396 9.83555 6.59802C9.53925 6.88761 9.49424 6.92208 9.55425 6.80487C9.76804 6.40151 9.97432 5.69478 10.0493 5.1156C10.1168 4.55711 10.0793 3.57803 9.95556 2.72995L9.93306 2.58171L9.50925 3.0747C8.8379 3.85727 8.5416 4.22615 8.24156 4.6502C7.69397 5.42243 7.5327 5.812 7.42018 6.62905C7.31892 7.38405 7.48769 8.45621 7.73898 8.64582C7.79524 8.68719 7.81774 8.68375 7.91151 8.62169C7.97151 8.58032 8.03152 8.54585 8.04278 8.54585C8.05403 8.54585 7.93776 8.70443 7.78399 8.89749C7.49519 9.26982 6.8576 10.1937 6.62131 10.5868C6.54255 10.7178 6.47504 10.8212 6.47129 10.8212C6.46379 10.8212 6.47504 10.7384 6.49754 10.6385C6.51629 10.5419 6.53505 10.18 6.53505 9.83865C6.53505 8.93541 6.47129 8.63893 5.8862 6.93243C5.73243 6.49115 5.59741 6.14295 5.58615 6.15674C5.5599 6.18432 5.21485 7.15996 4.93356 7.99425C4.74978 8.5424 4.51349 9.39393 4.43848 9.78694C4.39723 9.99724 4.37097 10.3006 4.37097 10.6316C4.37097 11.2073 4.43473 11.5279 4.65601 12.0071C4.78353 12.2795 5.2486 13.0724 5.28986 13.0896C5.30486 13.0965 5.27486 13.2034 5.22235 13.331C5.06108 13.7136 4.70102 14.7168 4.62601 14.9823C4.5885 15.1202 4.54725 15.234 4.53225 15.234C4.51724 15.234 4.49474 15.1616 4.47974 15.0685C4.44223 14.8237 4.10468 13.9274 3.87965 13.4689C3.77088 13.2448 3.60211 12.9655 3.50834 12.8414C3.41458 12.7173 3.14454 12.3243 2.90825 11.9692C2.36442 11.1384 2.28566 11.1108 2.28566 11.7348C2.28566 11.8865 2.2669 12.2519 2.24815 12.5449C2.07188 15.0064 2.17314 15.9752 2.69072 16.906C2.9045 17.2852 3.26455 17.6369 3.66962 17.854C3.94341 18.0023 3.94341 18.0057 3.9209 18.1298C3.86465 18.4505 3.78213 19.4123 3.75963 19.9984L3.73713 20.6465L3.55335 20.3293C3.30956 19.9156 2.86324 19.2537 2.57445 18.8883C2.15439 18.3505 1.9031 18.0954 1.48304 17.7851C1.25425 17.6162 0.950456 17.3921 0.811685 17.2887C0.440379 17.0094 0.369118 17.0301 0.462883 17.3817C0.492887 17.499 0.605404 18.0299 0.71042 18.5608C0.999213 20.0432 1.19049 20.6844 1.55805 21.4015C2.01562 22.2944 2.75823 22.9942 3.71462 23.4424L3.92841 23.5389L3.96966 23.8251C4.05968 24.4008 4.2547 25.3213 4.38597 25.797C4.42348 25.9315 4.44973 26.0453 4.44598 26.0487C4.43848 26.0556 4.37847 25.9867 4.31096 25.9005C4.09343 25.6212 3.66587 25.2523 3.29831 25.0248C3.10328 24.9041 2.69072 24.6421 2.37942 24.4387C1.49054 23.8596 0.0953271 23.0253 0.0165653 23.0253C-0.0396932 23.0253 0.0353181 23.1908 0.429127 23.9526C1.02922 25.1179 1.68557 26.3004 1.96686 26.7313C2.64571 27.7759 3.62836 28.4999 4.90355 28.9032C5.11733 28.9687 5.35362 29.0239 5.42488 29.0239C5.54865 29.0239 5.5599 29.0342 5.65367 29.2411C5.79619 29.5548 6.59881 31.0027 6.78259 31.2751C6.94761 31.5233 6.94011 31.5268 6.68507 31.3475C6.27626 31.0614 5.45864 30.6442 4.77978 30.3719C4.27346 30.1685 3.90965 30.0581 3.28331 29.9202C3.01702 29.8616 2.5632 29.7341 2.27816 29.6444C1.50929 29.3928 1.47929 29.441 2.01562 30.0443C2.2144 30.2719 2.55195 30.6649 2.75823 30.92C3.2458 31.5164 3.67337 31.9508 4.20595 32.3921C5.27111 33.2746 5.73618 33.5366 6.66632 33.7814C7.43143 33.9848 7.82899 34.0193 8.45159 33.9503L8.78539 33.9124L8.8829 34.0296C9.25796 34.4709 10.1543 35.3259 10.9307 35.9844L11.2308 36.2395L10.6607 35.974C10.0193 35.6775 9.92181 35.6534 8.68037 35.4914C6.86135 35.2535 4.94106 35.1087 4.71227 35.188C4.65601 35.2121 4.66352 35.2294 4.78728 35.3362C5.05357 35.5707 6.65132 36.6394 7.25141 36.9876C7.72773 37.2634 8.18155 37.4668 8.77414 37.6702C9.8318 38.0322 10.2594 38.1046 11.1782 38.0804C11.9359 38.0597 12.1834 38.0184 12.7872 37.7977L13.2223 37.6391L13.7399 37.9356C14.3025 38.2597 15.2139 38.7285 15.6002 38.894C16.2303 39.1629 16.3015 39.1974 16.1627 39.1767C16.0915 39.1664 15.6377 39.1491 15.1576 39.1354C13.9649 39.1078 13.6836 39.1388 11.7746 39.4835C11.2083 39.587 10.4281 39.7214 10.0418 39.7869C9.21295 39.9214 9.16044 39.9593 9.63302 40.0834C9.79429 40.1248 10.3906 40.2937 10.9532 40.4557C12.881 41.0073 13.2561 41.0694 14.5875 41.0728C15.4426 41.0728 15.5889 41.0659 15.949 40.9935C16.8116 40.8281 17.3967 40.573 17.9218 40.1386C18.1543 39.9455 18.2556 39.88 18.3156 39.8938C18.3568 39.9007 18.6494 39.9731 18.9607 40.0524C19.272 40.1317 19.8008 40.2489 20.1346 40.3109C20.4646 40.373 20.7459 40.4316 20.7572 40.4419C20.7647 40.4488 20.6859 40.4764 20.5772 40.5006C20.0783 40.6178 18.7244 41.2004 16.7253 42.1553C15.5927 42.6966 15.2476 42.8862 15.3114 42.9241C15.4276 42.9931 17.3592 42.9241 18.4693 42.8104C19.8383 42.6725 21.5973 42.1105 22.3174 41.5796C22.5837 41.3831 22.8613 41.128 23.1426 40.8246L23.2776 40.6764H24.0464H24.8191L25.3554 41.1487C26.2818 41.9623 26.428 42.0347 28.0895 42.4966C29.0422 42.7621 29.3272 42.8035 31.1688 42.9207C32.8228 43.0276 32.9278 43.0276 32.9278 42.9138C32.9278 42.8276 31.9339 42.3346 31.315 42.114C31.12 42.045 30.7975 41.8933 30.6024 41.7761C30.0924 41.4727 29.6685 41.2624 29.1585 41.0556C28.6934 40.8694 27.4445 40.4695 27.3319 40.4695C27.2944 40.4695 27.2644 40.4592 27.2644 40.4419C27.2644 40.4282 27.4369 40.3868 27.6507 40.3523C28.1045 40.2765 29.0384 40.0627 29.5823 39.911C29.7923 39.8524 29.9686 39.8111 29.9761 39.818C29.9798 39.8248 30.0098 39.8766 30.0398 39.9352C30.2274 40.2696 31.4838 40.866 32.3277 41.0177C32.984 41.1383 34.383 41.128 35.1031 41.0039C35.752 40.8867 38.051 40.242 38.4036 40.0731C38.5574 40.0007 38.5499 39.9007 38.3961 39.8524C38.2011 39.7973 36.8884 39.5525 35.9657 39.4043C34.4655 39.1595 34.0267 39.1112 33.2653 39.1112C32.594 39.1112 32.429 39.1285 31.5476 39.2801C31.4913 39.2905 31.5326 39.2629 31.6338 39.2215C32.5265 38.863 33.9067 38.1632 34.7918 37.615C35.2306 37.3427 35.2456 37.3392 35.2006 37.4461C35.1106 37.646 35.2156 37.7667 35.5982 37.8977C36.0332 38.0494 36.4496 38.1046 37.1284 38.1046C37.8073 38.1046 38.0773 38.0666 38.7974 37.8667C39.4538 37.684 39.9601 37.4737 40.5827 37.1255C41.6216 36.5463 43.0543 35.6431 43.2756 35.4224C43.3881 35.3121 43.3581 35.2397 43.1856 35.2087C42.9643 35.1707 40.5264 35.3397 39.6225 35.4569C38.5161 35.5982 37.5072 35.8913 36.7534 36.2946L36.5471 36.4049L36.7534 36.2395C37.5672 35.5879 38.3736 34.8329 39.0937 34.0503C39.2962 33.8297 39.3112 33.8193 39.39 33.8642C39.7388 34.0641 40.7027 33.9986 41.7003 33.7056C42.1954 33.5608 42.5067 33.4091 43.0356 33.0609C44.2732 32.2473 44.7458 31.8095 45.4847 30.7959C45.796 30.3684 46.0473 30.0926 46.3285 29.8823C46.5911 29.6824 46.6586 29.5893 46.5761 29.5376C46.5048 29.4927 46.3473 29.5203 45.7735 29.6789C45.5072 29.7513 45.0421 29.8685 44.7421 29.9409C44.1832 30.0719 43.7707 30.2029 43.2793 30.4132C42.6042 30.6994 41.7041 31.2096 41.1453 31.6233C40.8415 31.8474 40.834 31.8508 40.9202 31.7233C41.3816 31.0372 42.1054 29.772 42.3605 29.2032C42.4167 29.079 42.4692 29.0135 42.4992 29.0239C42.7805 29.1135 43.8307 28.7446 44.5995 28.2827C45.0571 28.0034 45.7097 27.4277 45.9535 27.0761C46.4148 26.4107 47.7163 24.0285 47.9525 23.4148C48.0613 23.1321 48.0051 23.1287 47.5512 23.3769C47.0224 23.67 45.3759 24.6766 44.8921 25.0076C44.4458 25.3144 43.8982 25.8005 43.6431 26.1246C43.5456 26.2452 43.4669 26.3349 43.4669 26.328C43.4669 26.3176 43.5156 26.1349 43.5794 25.9177C43.7144 25.4316 43.8907 24.6387 43.9919 24.025C44.037 23.7699 44.0745 23.5596 44.0782 23.5596C44.082 23.5562 44.1532 23.5355 44.2395 23.5148C44.457 23.4562 45.1771 23.0529 45.4509 22.8357C45.9235 22.453 46.261 22.0393 46.5836 21.4394C46.9436 20.7741 47.1724 20.0432 47.405 18.8124C47.4875 18.3712 47.6112 17.8127 47.675 17.5748C47.8363 16.968 47.795 16.9025 47.4162 17.1921C46.9324 17.5679 45.5747 18.9159 45.1171 19.4778C44.8396 19.8191 44.577 20.2432 44.4045 20.6224L44.2657 20.9223L44.2432 20.1742C44.2207 19.5192 44.1532 18.6745 44.082 18.1574C44.0595 18.0057 44.0632 17.9988 44.1345 18.0161C44.2807 18.0506 44.562 17.8851 44.9333 17.5472C45.2484 17.2576 45.3159 17.1749 45.4622 16.8888C45.7585 16.3165 45.9122 15.758 45.9797 15.003C46.0435 14.2756 46.0247 13.6791 45.886 12.0623C45.796 11.0246 45.856 11.0556 45.3647 11.7899C44.577 12.9724 43.9807 14.0101 43.8007 14.5272C43.7332 14.7272 43.7144 14.872 43.6994 15.3822C43.6919 15.7201 43.6769 15.9924 43.6694 15.9855C43.6619 15.9786 43.5981 15.7545 43.5231 15.4925C43.3544 14.8892 43.0018 13.8722 42.758 13.293C42.6342 12.9965 42.5967 12.869 42.638 12.9035C42.8068 13.0448 42.998 12.9035 43.2606 12.4346C43.4556 12.0864 43.6957 11.4486 43.7894 11.028C43.8982 10.5247 43.8194 9.98345 43.4444 8.70098C43.2531 8.04596 42.743 6.60147 42.6792 6.52907C42.5555 6.39117 42.3755 6.698 41.9666 7.73569C41.7829 8.20799 41.7379 8.46311 41.6966 9.37669C41.6666 10.0041 41.6628 10.3903 41.6928 10.704C41.7116 10.9487 41.7266 11.1521 41.7229 11.159C41.7154 11.1659 41.6178 11.0073 41.5053 10.8108C41.074 10.0731 40.4327 9.15261 39.8701 8.46311C39.5738 8.09768 39.5625 8.03217 39.8476 8.30452C39.9301 8.38382 40.0801 8.50448 40.1814 8.57343L40.3652 8.69754L40.4514 8.60445C40.6314 8.4114 40.7402 7.84946 40.7402 7.11514C40.7402 5.91887 40.4102 5.16387 39.3262 3.87451C39.1125 3.6194 38.2536 2.65066 38.1336 2.52999C38.0998 2.49552 38.1186 3.26431 38.1823 4.75706C38.2161 5.60859 38.2686 6.00161 38.3848 6.32222C38.4561 6.51528 38.7224 7.03585 38.8724 7.27028C38.9287 7.35646 38.9474 7.39439 38.9137 7.35991C38.5049 6.89795 37.4172 5.89473 36.8171 5.41553C36.6896 5.31556 36.6783 5.29832 36.7309 5.25006C36.8359 5.15697 36.8809 4.91565 36.8809 4.47782C36.8809 3.97794 36.8321 3.76074 36.6521 3.42634C36.3258 2.82303 35.5607 2.01287 34.7731 1.43714C34.3042 1.09584 33.3853 0.547691 33.2766 0.547691C33.1641 0.547691 33.2728 1.09929 33.5841 2.06113C33.8242 2.80579 33.9817 3.09193 34.4618 3.66421C34.6305 3.86417 34.6455 3.8952 34.5555 3.84003C34.4955 3.80556 34.2105 3.65732 33.9217 3.50908C33.2653 3.17812 32.7327 2.89543 32.6877 2.8575C32.669 2.84027 32.639 2.72995 32.6202 2.60929C32.549 2.13353 32.1252 1.55436 31.5663 1.16479C31.0412 0.799358 30.5462 0.620087 28.7309 0.130547C28.1533 -0.0245895 28.052 -0.034935 28.052 0.0650444C28.052 0.216732 29.0609 1.45093 29.691 2.06458C30.2086 2.57137 30.9212 2.93679 31.6676 3.08504C31.9076 3.12985 31.9901 3.17467 32.7102 3.64008C33.1378 3.91588 33.4866 4.15031 33.4791 4.1572C33.4716 4.16065 33.2728 4.15376 33.0403 4.13652C32.5265 4.0986 32.0726 4.13307 31.4726 4.25718C30.9287 4.3675 30.1674 4.5778 29.721 4.73638C28.7646 5.07768 28.8734 5.13284 30.9212 5.33969C31.4988 5.3983 31.9976 5.45346 32.0276 5.46035C32.0576 5.47069 32.3952 5.49138 32.774 5.51206C33.5391 5.55343 34.7168 5.50862 35.1406 5.42933L35.3844 5.38106L35.8157 5.70512C36.052 5.88094 36.3558 6.11882 36.4908 6.22914L36.7346 6.43599L36.3971 6.35325C35.7182 6.18777 35.3131 6.14985 34.203 6.1533C33.0816 6.15674 32.8453 6.18432 32.8228 6.32567C32.8078 6.42909 32.9015 6.4877 33.4154 6.69455C33.6741 6.79798 34.263 7.04964 34.7281 7.25304C35.5607 7.61848 36.3858 7.9322 36.7984 8.04251C37.1134 8.12526 37.811 8.22868 38.2461 8.25626L38.6361 8.28039L39.0299 8.7527C39.2437 9.01471 39.525 9.36635 39.6525 9.53183C39.8513 9.79728 39.8701 9.82831 39.7726 9.76971C38.9437 9.26637 37.1172 8.65617 36.2433 8.59066C35.9582 8.56998 35.8945 8.59756 35.962 8.71478C36.037 8.83888 38.6961 10.9074 39.2325 11.2556C40.0013 11.7589 40.894 12.2278 41.2315 12.3071L41.4003 12.345L41.5766 12.7139C41.7566 13.0862 42.2292 14.2135 42.2292 14.2687C42.2292 14.2859 42.0379 14.1204 41.8091 13.8998C41.2803 13.4033 40.8565 13.1069 40.1439 12.7311C39.0862 12.1726 38.4036 11.9002 38.4036 12.0347C38.4036 12.1071 38.5874 12.3519 38.8574 12.6311C39.3075 13.1069 39.8551 13.8515 40.3314 14.6444C40.4514 14.841 40.6089 15.0823 40.6877 15.1788C41.1378 15.7373 41.9854 16.4923 42.6117 16.8956C42.7955 17.0163 42.9718 17.1266 43.0018 17.1473C43.0843 17.199 43.2456 18.2402 43.3506 19.3709C43.3656 19.5502 43.3769 19.7019 43.3731 19.7088C43.3694 19.7122 43.3093 19.5743 43.2418 19.3985C43.0806 18.9641 42.8368 18.5401 42.5855 18.2505C42.3229 17.9506 40.2451 15.9752 40.1889 15.9752C40.1101 15.9752 40.1589 16.1889 40.4252 17.0267C40.9802 18.7607 41.344 19.6743 41.8166 20.5258C42.1917 21.2084 42.6492 21.829 43.1293 22.3116L43.3281 22.5116L43.3018 22.7943C43.2418 23.4183 42.9905 24.9214 42.9418 24.9214C42.9268 24.9214 42.9043 24.8249 42.893 24.7042C42.8218 24.0044 42.3942 23.1184 41.3741 21.5601C40.9502 20.9085 40.7365 20.6396 40.6614 20.6534C40.5677 20.6706 40.5639 20.974 40.6352 22.0772C40.7627 24.1009 40.8752 25.2213 40.999 25.6626C41.1678 26.29 41.6516 27.276 41.9704 27.6483L42.0754 27.7725L41.8579 28.2689C41.5053 29.0687 40.8415 30.3408 40.8415 30.2133C40.8415 30.1926 40.8602 29.9547 40.879 29.6824C40.954 28.6585 40.7365 27.276 40.3126 26.1108C40.1476 25.6523 40.0163 25.4385 39.9038 25.4385C39.8026 25.4385 39.7651 25.5212 39.7351 25.835C39.7013 26.1901 39.5738 26.8003 39.3225 27.8173C38.9099 29.479 38.8349 29.9547 38.8649 30.7752C38.8874 31.3923 38.9287 31.6026 39.1612 32.2197L39.2812 32.5369L38.9587 32.9264C38.6249 33.3298 37.916 34.102 37.8373 34.1468C37.8035 34.1641 37.7998 34.1468 37.8185 34.0882C37.8673 33.9228 37.991 33.2057 38.0285 32.854C38.0848 32.3335 38.0736 31.1751 38.0098 30.4201C37.976 30.0616 37.946 29.7479 37.9385 29.7306C37.931 29.7099 37.796 29.9375 37.6347 30.2305C37.1959 31.0372 36.6221 31.9956 36.3333 32.4128C35.6019 33.4711 35.4332 34.0503 35.3431 35.7982L35.3206 36.2843L35.0881 36.4394C34.578 36.7911 33.4154 37.5047 33.3591 37.5047C33.3478 37.5047 33.4079 37.4047 33.4904 37.2841C33.9029 36.6876 34.3155 35.712 34.518 34.857C34.6005 34.5157 34.7656 33.5297 34.7431 33.5091C34.7168 33.4815 32.7065 35.3362 32.1289 35.9189C31.0262 37.0358 30.5424 37.8012 30.4337 38.6113L30.4074 38.8044L29.8973 38.963C29.4848 39.0905 28.4609 39.3663 28.4008 39.3663C28.3933 39.3663 28.5546 39.2112 28.7609 39.0216C29.541 38.3045 30.2836 37.2599 30.4637 36.6256C30.5874 36.1774 30.6399 36.1947 30.0136 36.4842C29.5185 36.7083 29.0534 36.891 28.0708 37.2358C27.9058 37.2944 27.5682 37.4357 27.3207 37.553C26.9156 37.7426 26.8331 37.7977 26.4918 38.108C25.8692 38.6803 25.3479 39.3905 25.3366 39.6766L25.3329 39.8042L25.0553 39.8283C24.6353 39.8593 23.0413 39.8524 22.9438 39.818C22.8838 39.7973 22.8313 39.7214 22.7675 39.5697C22.6475 39.2733 22.4149 38.8458 22.2687 38.6493C22.0736 38.3838 21.6423 38.0115 21.2898 37.8012C20.9072 37.5702 20.4571 37.3702 19.8008 37.1427C18.9194 36.8393 18.0905 36.4911 17.6667 36.2567L17.543 36.1843L17.5692 36.3015C17.7605 37.091 18.4581 38.0942 19.482 39.0492C19.7108 39.2629 19.8721 39.4284 19.8421 39.4215C19.8083 39.4112 19.5458 39.3491 19.257 39.2801C18.9682 39.2112 18.5031 39.0871 18.2218 39.0009L17.7117 38.8492L17.6855 38.632C17.5805 37.7736 17.2842 37.2565 16.2903 36.2291C15.934 35.8637 13.4211 33.4642 13.4061 33.478C13.3723 33.5056 13.5899 34.595 13.7249 35.0811C14.0287 36.1912 14.3737 36.96 14.8388 37.5667C14.8913 37.6357 14.8688 37.6288 14.6588 37.5185C14.34 37.3496 13.4398 36.8049 13.076 36.5566C12.866 36.4153 12.7872 36.3429 12.806 36.305C12.8172 36.2774 12.8472 36.1326 12.866 35.9912C12.971 35.319 12.746 34.2641 12.2809 33.2436C12.0934 32.8334 11.9621 32.6093 11.5833 32.0335C11.3358 31.6612 10.7319 30.6304 10.4394 30.0823C10.3606 29.9375 10.2781 29.8168 10.2519 29.8168C10.1843 29.8168 10.1618 30.2822 10.1618 31.6957C10.1618 33.4229 10.1881 33.6849 10.4469 34.402C10.4844 34.5019 9.66302 33.6573 9.13794 33.0471L8.81539 32.6782L8.90916 32.4817C9.10794 32.068 9.29921 31.082 9.29921 30.4615C9.29921 29.8651 9.1642 29.1101 8.75913 27.4484C8.5116 26.4314 8.37283 25.7557 8.35407 25.473C8.34657 25.3558 8.32782 25.3144 8.27531 25.3075C8.22655 25.2972 8.17405 25.3627 8.06528 25.5833C7.82524 26.0556 7.5552 27.0106 7.32267 28.1965C7.1914 28.8791 7.1839 29.6169 7.30391 30.2305C7.34892 30.4477 7.37517 30.6304 7.37142 30.6373C7.36392 30.6408 7.16514 30.2926 6.92886 29.8616C6.55005 29.1687 6.14124 28.324 5.99497 27.9483L5.94996 27.8242L6.17874 27.5897C6.5688 27.2002 7.06013 26.197 7.18015 25.5488C7.33392 24.718 7.62271 21.0188 7.55145 20.812C7.52145 20.7224 7.45394 20.7361 7.32642 20.8603C6.9026 21.2774 5.74368 23.177 5.49614 23.8561C5.36487 24.2181 5.25235 24.7731 5.22235 25.1868C5.2111 25.3833 5.19235 25.5385 5.18484 25.5316C5.12484 25.473 4.80979 23.7975 4.71977 23.0529L4.67477 22.6805L4.77228 22.6116C5.04607 22.4116 6.25376 20.812 6.52755 20.2845C6.84635 19.6709 8.03152 16.2062 7.97902 16.0545C7.95651 15.9993 7.43893 16.4337 6.69257 17.1335C5.37612 18.3608 5.08733 18.7883 4.65226 20.1294C4.54725 20.4466 4.68227 18.778 4.84354 17.7748L4.92231 17.2645L5.07608 17.1921C5.33862 17.0715 5.91996 16.6543 6.29126 16.3234C6.98512 15.7063 7.47269 15.134 8.39158 13.855C8.71038 13.4102 9.13419 12.8414 9.33672 12.5932C9.53925 12.345 9.72303 12.1071 9.74553 12.0692C9.80554 11.9692 9.79804 11.8899 9.73053 11.8899C9.57676 11.8899 8.17405 12.6139 7.27391 13.162C6.82759 13.4309 6.22 13.9377 5.91996 14.2894C5.82994 14.3962 5.72493 14.5169 5.69117 14.5583C5.57115 14.6927 6.23875 13.031 6.49754 12.5449C6.57255 12.4105 6.59881 12.3863 6.76383 12.3484C7.00387 12.2933 7.63396 12.014 8.13654 11.7348C8.95041 11.2831 9.71553 10.7557 10.4806 10.1179C10.7282 9.91105 11.1332 9.58699 11.3808 9.39738C12.0371 8.89749 12.1947 8.75615 12.1796 8.66996C12.1646 8.56654 12.0034 8.56308 11.5308 8.64927C10.3119 8.87681 9.2242 9.28016 8.32782 9.8421C8.13654 9.96276 7.97151 10.0627 7.96401 10.0627C7.904 10.0627 9.16794 8.45966 9.32172 8.33555C9.37798 8.29074 9.50925 8.2735 9.88055 8.25971C10.9607 8.21489 11.8946 7.95633 13.2748 7.32199C13.6161 7.16685 14.1562 6.93243 14.475 6.80487C14.7938 6.67731 15.1126 6.53252 15.1801 6.4877C15.5289 6.24638 15.1163 6.13261 13.8937 6.13261C12.8247 6.13261 11.8759 6.25327 11.2533 6.47046C11.1707 6.49804 11.8421 5.95334 12.3072 5.61204C12.5622 5.42588 12.7047 5.34314 12.746 5.35693C12.9448 5.42933 13.4736 5.51551 13.8937 5.54998C14.4975 5.5948 15.1238 5.55688 16.6128 5.3914C17.2017 5.32245 17.9518 5.25005 18.2818 5.22592C18.8707 5.18111 19.0694 5.13629 19.0394 5.05355C18.9794 4.88462 17.738 4.45024 16.8003 4.27097C16.0652 4.13307 15.0301 4.0986 14.475 4.19857C14.3812 4.21581 14.3025 4.22615 14.295 4.22271C14.2912 4.21581 14.6138 3.97794 15.0113 3.69524L15.7352 3.17467L16.1477 3.13675C17.0479 3.05401 17.6742 2.73684 18.5669 1.91979C19.0694 1.45782 19.5195 0.968281 19.8008 0.575268C20.0371 0.251205 20.0896 0.120201 20.0221 0.0443573C19.9658 -0.0176964 19.9471 -0.0142517 19.632 0.0857277Z" fill="url(#paint0_linear_1150_1738)"/>
<defs>
<linearGradient id="paint0_linear_1150_1738" x1="24" y1="43" x2="24" y2="0" gradientUnits="userSpaceOnUse">
<stop stop-color="#F3BA26"/>
<stop offset="0.0001" stop-color="#AA7A00"/>
<stop offset="1" stop-color="#FFC226"/>
</linearGradient>
</defs>
</svg>
